<?xml version="1.0" encoding="UTF-8"?>
<svg xmlns="http://www.w3.org/2000/svg" xmlns:xlink="http://www.w3.org/1999/xlink" width="50px" height="50px" viewBox="0 0 50 50" version="1.1">
<g id="surface1">
<path style="fill:none;stroke-width:4;stroke-linecap:butt;stroke-linejoin:round;stroke:rgb(0%,0%,0%);stroke-opacity:1;stroke-miterlimit:10;" d="M 63.017759 200.602105 L 19.807444 25.67031 L 193.038464 75.541994 Z M 63.017759 200.602105 " transform="matrix(0.220488,0,0,0.220488,1.976452,0.937668)"/>
<path style="fill:none;stroke-width:4;stroke-linecap:butt;stroke-linejoin:round;stroke:rgb(0%,0%,0%);stroke-opacity:1;stroke-miterlimit:10;" d="M 106.387521 50.61501 L 127.98382 138.116341 L 41.421459 113.171641 Z M 106.387521 50.61501 " transform="matrix(0.220488,0,0,0.220488,1.976452,0.937668)"/>
<path style="fill:none;stroke-width:4;stroke-linecap:butt;stroke-linejoin:round;stroke:rgb(0%,0%,0%);stroke-opacity:1;stroke-miterlimit:10;" d="M 84.915237 125.023916 L 74.179095 81.565572 L 117.194529 93.913907 Z M 84.915237 125.023916 " transform="matrix(0.220488,0,0,0.220488,1.976452,0.937668)"/>
<path style="fill:none;stroke-width:4;stroke-linecap:butt;stroke-linejoin:round;stroke:rgb(0%,0%,0%);stroke-opacity:1;stroke-miterlimit:10;" d="M 63.460669 38.160377 L 74.179095 81.618721 L 31.181377 69.270386 Z M 63.460669 38.160377 " transform="matrix(0.220488,0,0,0.220488,1.976452,0.937668)"/>
<path style="fill:none;stroke-width:4;stroke-linecap:butt;stroke-linejoin:round;stroke:rgb(0%,0%,0%);stroke-opacity:1;stroke-miterlimit:10;" d="M 149.473821 62.927912 L 160.192247 106.386257 L 117.194529 94.055638 Z M 149.473821 62.927912 " transform="matrix(0.220488,0,0,0.220488,1.976452,0.937668)"/>
<path style="fill:none;stroke-width:4;stroke-linecap:butt;stroke-linejoin:round;stroke:rgb(0%,0%,0%);stroke-opacity:1;stroke-miterlimit:10;" d="M 84.915237 125.059349 L 95.633662 168.517694 L 52.635945 156.187075 Z M 84.915237 125.059349 " transform="matrix(0.220488,0,0,0.220488,1.976452,0.937668)"/>
</g>
</svg>
